<svg height="495pt" viewBox="-15 0 495 495.872" width="495pt" xmlns="http://www.w3.org/2000/svg"><path d="m64.484375 431.886719c-4.425781 0-8-3.574219-8-8 0-39.710938 32.304687-72.015625 72.015625-72.015625 4.425781 0 8 3.578125 8 8 0 4.425781-3.574219 8-8 8-30.886719 0-56.015625 25.128906-56.015625 56.015625 0 4.425781-3.578125 8-8 8zm0 0"/><path d="m400.476562 431.886719c-4.425781 0-8-3.574219-8-8 0-30.871094-25.128906-56-56-56-4.425781 0-8-3.574219-8-8 0-4.421875 3.574219-8 8-8 39.703126 0 72 32.296875 72 72 0 4.425781-3.585937 8-8 8zm0 0"/><path d="m176.484375 367.871094h-47.976563c-4.421874 0-8-3.574219-8-8 0-4.421875 3.578126-8 8-8h47.976563c4.421875 0 8 3.578125 8 8 0 4.425781-3.585937 8-8 8zm0 0"/><path d="m64.492188 495.871094c-4.417969 0-8-3.574219-8-8l-.007813-63.984375c0-4.414063 3.574219-8 8-8 4.414063 0 8 3.578125 8 8l.007813 63.984375c0 4.417968-3.578126 8-8 8zm0 0"/><path d="m400.476562 495.871094c-4.425781 0-8-3.574219-8-8v-63.984375c0-4.421875 3.574219-8 8-8 4.421876 0 8 3.578125 8 8v63.984375c0 4.425781-3.585937 8-8 8zm0 0"/><path d="m456.53125 495.871094h-448.09375c-4.425781 0-8-3.574219-8-8 0-4.421875 3.574219-8 8-8h448.101562c4.425782 0 8 3.578125 8 8 0 4.425781-3.582031 8-8.007812 8zm0 0"/><path d="m176.484375 367.871094c-4.425781 0-8-3.574219-8-8v-45.839844c0-4.421875 3.574219-8 8-8 4.421875 0 8 3.578125 8 8v45.839844c0 4.425781-3.585937 8-8 8zm0 0"/><path d="m288.484375 367.886719c-4.425781 0-8-3.574219-8-8v-45.855469c0-4.421875 3.574219-8 8-8 4.421875 0 8 3.578125 8 8v45.855469c0 4.425781-3.585937 8-8 8zm0 0"/><path d="m232.484375 335.871094c-66.167969 0-120-53.832032-120-120 0-4.414063 3.574219-8 8-8 4.421875 0 8 3.585937 8 8 0 57.34375 46.65625 104 104 104s104-46.65625 104-104c0-4.414063 3.574219-8 8-8 4.421875 0 8 3.585937 8 8 0 66.175781-53.832031 120-120 120zm0 0"/><path d="m336.476562 367.886719h-47.992187c-4.425781 0-8-3.574219-8-8 0-4.421875 3.574219-8 8-8h47.992187c4.421876 0 8 3.578125 8 8 0 4.425781-3.585937 8-8 8zm0 0"/><path d="m232.621094 407.871094c-1.601563 0-3.226563-.488282-4.632813-1.488282l-56.152343-40c-3.601563-2.558593-4.441407-7.558593-1.871094-11.160156 2.558594-3.605468 7.550781-4.445312 11.160156-1.871094l56.152344 40c3.597656 2.558594 4.4375 7.558594 1.871094 11.160157-1.570313 2.199219-4.023438 3.359375-6.527344 3.359375zm0 0"/><path d="m232.589844 407.871094c-2.496094 0-4.953125-1.167969-6.515625-3.34375-2.566407-3.589844-1.742188-8.589844 1.851562-11.167969l55.894531-39.984375c3.601563-2.566406 8.589844-1.734375 11.167969 1.847656 2.566407 3.59375 1.742188 8.59375-1.847656 11.167969l-55.898437 39.984375c-1.421876 1.015625-3.046876 1.496094-4.652344 1.496094zm0 0"/><path d="m344.597656 223.871094c-4.425781 0-8-3.582032-8-8v-95.886719c0-4.417969 3.574219-8 8-8 4.421875 0 8 3.582031 8 8v95.886719c0 4.417968-3.578125 8-8 8zm0 0"/><path d="m120.597656 223.871094c-4.425781 0-8-3.582032-8-8v-79.886719c0-4.417969 3.574219-8 8-8 4.421875 0 8 3.582031 8 8v79.886719c0 4.417968-3.578125 8-8 8zm0 0"/><path d="m344.492188 127.984375c-4.425782 0-8-3.585937-8-8 0-22.054687-17.945313-40-40-40-4.425782 0-8-3.585937-8-8 0-4.417969 3.574218-8 8-8 30.871093 0 56 25.121094 56 56 0 4.414063-3.578126 8-8 8zm0 0"/><path d="m296.492188 79.984375c-4.425782 0-8-3.585937-8-8v-32c0-4.417969 3.574218-8 8-8 4.421874 0 8 3.582031 8 8v32c0 4.414063-3.578126 8-8 8zm0 0"/><path d="m296.492188 47.984375h-80.007813c-4.425781 0-8-3.585937-8-8 0-4.417969 3.574219-8 8-8h80.007813c4.421874 0 8 3.582031 8 8 0 4.414063-3.578126 8-8 8zm0 0"/><path d="m120.46875 143.984375c-4.425781 0-8-3.585937-8-8 0-57.34375 46.664062-104 104.015625-104 4.421875 0 8 3.582031 8 8 0 4.414063-3.578125 8-8 8-48.527344 0-88.015625 39.480469-88.015625 88 0 4.414063-3.585938 8-8 8zm0 0"/><path d="m344.492188 192c-2.046876 0-4.097657-.785156-5.65625-2.34375l-24-24c-3.128907-3.128906-3.128907-8.183594 0-11.3125 3.128906-3.128906 8.183593-3.128906 11.3125 0l24 24c3.128906 3.128906 3.128906 8.183594 0 11.3125-1.558594 1.558594-3.609376 2.34375-5.65625 2.34375zm0 0"/><path d="m232.484375 184c-44.320313 0-88.832031-15.800781-90.710937-16.472656-4.160157-1.496094-6.320313-6.070313-4.832032-10.230469 1.496094-4.160156 6.078125-6.335937 10.230469-4.832031.433594.160156 43.832031 15.527344 85.304687 15.527344 41.464844 0 84.871094-15.375 85.304688-15.527344 4.167969-1.503906 8.734375.664062 10.230469 4.832031 1.496093 4.160156-.671875 8.734375-4.832031 10.230469-1.855469.671875-46.382813 16.472656-90.695313 16.472656zm0 0"/><path d="m120.46875 192c-2.046875 0-4.097656-.785156-5.65625-2.34375-3.128906-3.128906-3.128906-8.191406 0-11.320312l24.015625-24c3.128906-3.121094 8.183594-3.121094 11.3125 0 3.128906 3.121093 3.128906 8.191406 0 11.320312l-24.015625 24c-1.570312 1.558594-3.617188 2.34375-5.65625 2.34375zm0 0"/><path d="m304.226562 431.984375h-143.742187c-4.425781 0-8-3.578125-8-8 0-4.425781 3.574219-8 8-8h143.75c4.425781 0 8 3.574219 8 8 0 4.421875-3.582031 8-8.007813 8zm0 0"/><path d="m304.46875 495.871094c-4.425781 0-8-3.574219-8-8v-63.886719c0-4.425781 3.574219-8 8-8 4.421875 0 8 3.574219 8 8v63.886719c0 4.425781-3.585938 8-8 8zm0 0"/><path d="m160.484375 495.871094c-4.425781 0-8-3.574219-8-8v-63.886719c0-4.425781 3.574219-8 8-8 4.421875 0 8 3.574219 8 8v63.886719c0 4.425781-3.585937 8-8 8zm0 0"/><path d="m199.933594 471.425781c-2.050782 0-4.097656-.785156-5.65625-2.347656l-15.441406-15.4375c-3.128907-3.128906-3.128907-8.183594 0-11.3125 3.128906-3.128906 8.183593-3.128906 11.3125 0l15.441406 15.441406c3.125 3.125 3.125 8.183594 0 11.308594-1.5625 1.5625-3.609375 2.347656-5.65625 2.347656zm0 0"/><path d="m184.492188 471.984375c-2.046876 0-4.097657-.785156-5.65625-2.34375-3.128907-3.128906-3.128907-8.183594 0-11.3125l16-16c3.128906-3.128906 8.183593-3.128906 11.3125 0 3.128906 3.128906 3.128906 8.183594 0 11.3125l-16 16c-1.558594 1.558594-3.609376 2.34375-5.65625 2.34375zm0 0"/><path d="m239.941406 471.425781c-2.050781 0-4.097656-.785156-5.65625-2.347656l-15.441406-15.4375c-3.128906-3.128906-3.128906-8.183594 0-11.3125s8.183594-3.128906 11.3125 0l15.441406 15.441406c3.125 3.125 3.125 8.183594 0 11.308594-1.5625 1.5625-3.609375 2.347656-5.65625 2.347656zm0 0"/><path d="m224.5 471.984375c-2.046875 0-4.097656-.785156-5.65625-2.34375-3.128906-3.128906-3.128906-8.183594 0-11.3125l16-16c3.128906-3.128906 8.183594-3.128906 11.3125 0s3.128906 8.183594 0 11.3125l-16 16c-1.558594 1.558594-3.609375 2.34375-5.65625 2.34375zm0 0"/><path d="m279.949219 471.425781c-2.050781 0-4.097657-.785156-5.65625-2.347656l-15.441407-15.4375c-3.128906-3.128906-3.128906-8.183594 0-11.3125 3.128907-3.128906 8.183594-3.128906 11.3125 0l15.441407 15.441406c3.125 3.125 3.125 8.183594 0 11.308594-1.5625 1.5625-3.609375 2.347656-5.65625 2.347656zm0 0"/><path d="m264.507812 471.984375c-2.046874 0-4.097656-.785156-5.65625-2.34375-3.128906-3.128906-3.128906-8.183594 0-11.3125l16-16c3.128907-3.128906 8.183594-3.128906 11.3125 0 3.128907 3.128906 3.128907 8.183594 0 11.3125l-16 16c-1.558593 1.558594-3.609374 2.34375-5.65625 2.34375zm0 0"/><path d="m64.484375 464h-56.046875c-4.425781 0-8-3.574219-8-8s3.574219-8 8-8h56.054688c4.421874 0 8 3.574219 8 8s-3.585938 8-8.007813 8zm0 0"/><path d="m64.484375 432h-56.046875c-4.425781 0-8-3.574219-8-8s3.574219-8 8-8h56.054688c4.421874 0 8 3.574219 8 8s-3.585938 8-8.007813 8zm0 0"/><path d="m73.042969 400h-64.605469c-4.425781 0-8-3.574219-8-8s3.574219-8 8-8h64.605469c4.425781 0 8 3.574219 8 8s-3.574219 8-8 8zm0 0"/><path d="m128.5 368h-120.0625c-4.425781 0-8-3.574219-8-8s3.574219-8 8-8h120.070312c4.425782 0 8 3.574219 8 8s-3.582031 8-8.007812 8zm0 0"/><path d="m176.484375 336h-168.046875c-4.425781 0-8-3.574219-8-8s3.574219-8 8-8h168.046875c4.421875 0 8 3.574219 8 8s-3.585937 8-8 8zm0 0"/><path d="m154.21875 304h-145.78125c-4.425781 0-8-3.574219-8-8s3.574219-8 8-8h145.789062c4.425782 0 8 3.574219 8 8s-3.582031 8-8.007812 8zm0 0"/><path d="m131.316406 272h-122.878906c-4.425781 0-8-3.574219-8-8s3.574219-8 8-8h122.878906c4.421875 0 8 3.574219 8 8s-3.578125 8-8 8zm0 0"/><path d="m121.628906 240h-113.191406c-4.425781 0-8-3.585938-8-8s3.574219-8 8-8h113.191406c4.421875 0 8 3.585938 8 8s-3.578125 8-8 8zm0 0"/><path d="m120.46875 208h-112.03125c-4.425781 0-8-3.585938-8-8s3.574219-8 8-8h112.03125c4.421875 0 8 3.585938 8 8s-3.585938 8-8 8zm0 0"/><path d="m120.46875 176h-112.03125c-4.425781 0-8-3.585938-8-8s3.574219-8 8-8h112.03125c4.421875 0 8 3.585938 8 8s-3.585938 8-8 8zm0 0"/><path d="m120.597656 144h-112.160156c-4.425781 0-8-3.585938-8-8s3.574219-8 8-8h112.167969c4.421875 0 8 3.585938 8 8s-3.585938 8-8.007813 8zm0 0"/><path d="m125.914062 112h-117.476562c-4.425781 0-8-3.585938-8-8s3.574219-8 8-8h117.488281c4.421875 0 8 3.585938 8 8s-3.585937 8-8.011719 8zm0 0"/><path d="m144.875 80h-136.4375c-4.425781 0-8-3.585938-8-8s3.574219-8 8-8h136.445312c4.425782 0 8 3.585938 8 8s-3.582031 8-8.007812 8zm0 0"/><path d="m232.484375 48h-224.046875c-4.425781 0-8-3.585938-8-8s3.574219-8 8-8h224.054688c4.421874 0 8 3.585938 8 8s-3.585938 8-8.007813 8zm0 0"/><path d="m456.539062 464h-56.054687c-4.425781 0-8-3.574219-8-8s3.574219-8 8-8h56.054687c4.425782 0 8 3.574219 8 8s-3.574218 8-8 8zm0 0"/><path d="m456.539062 432h-56.054687c-4.425781 0-8-3.574219-8-8s3.574219-8 8-8h56.054687c4.425782 0 8 3.574219 8 8s-3.574218 8-8 8zm0 0"/><path d="m456.539062 400h-64.605468c-4.425782 0-8-3.574219-8-8s3.574218-8 8-8h64.605468c4.425782 0 8 3.574219 8 8s-3.574218 8-8 8zm0 0"/><path d="m456.539062 368h-120.0625c-4.425781 0-8-3.574219-8-8s3.574219-8 8-8h120.070313c4.425781 0 8 3.574219 8 8s-3.582031 8-8.007813 8zm0 0"/><path d="m456.539062 336h-168.046874c-4.425782 0-8-3.574219-8-8s3.574218-8 8-8h168.046874c4.425782 0 8 3.574219 8 8s-3.574218 8-8 8zm0 0"/><path d="m456.539062 304h-145.78125c-4.425781 0-8-3.574219-8-8s3.574219-8 8-8h145.789063c4.425781 0 8 3.574219 8 8s-3.582031 8-8.007813 8zm0 0"/><path d="m456.539062 272h-122.878906c-4.425781 0-8-3.574219-8-8s3.574219-8 8-8h122.878906c4.425782 0 8 3.574219 8 8s-3.574218 8-8 8zm0 0"/><path d="m456.539062 240h-113.191406c-4.421875 0-8-3.585938-8-8s3.578125-8 8-8h113.191406c4.425782 0 8 3.585938 8 8s-3.574218 8-8 8zm0 0"/><path d="m456.539062 208h-112.03125c-4.421874 0-8-3.585938-8-8s3.578126-8 8-8h112.03125c4.425782 0 8 3.585938 8 8s-3.574218 8-8 8zm0 0"/><path d="m456.539062 176h-112.03125c-4.421874 0-8-3.585938-8-8s3.578126-8 8-8h112.03125c4.425782 0 8 3.585938 8 8s-3.574218 8-8 8zm0 0"/><path d="m456.539062 144h-111.941406c-4.425781 0-8-3.585938-8-8s3.574219-8 8-8h111.941406c4.425782 0 8 3.585938 8 8s-3.574218 8-8 8zm0 0"/><path d="m456.539062 112h-114.773437c-4.425781 0-8-3.585938-8-8s3.574219-8 8-8h114.78125c4.425781 0 8 3.585938 8 8s-3.582031 8-8.007813 8zm0 0"/><path d="m456.539062 80h-160.046874c-4.425782 0-8-3.585938-8-8s3.574218-8 8-8h160.046874c4.425782 0 8 3.585938 8 8s-3.574218 8-8 8zm0 0"/><path d="m456.539062 48h-224.054687c-4.425781 0-8-3.585938-8-8s3.574219-8 8-8h224.054687c4.425782 0 8 3.585938 8 8s-3.574218 8-8 8zm0 0"/><path d="m456.867188 16h-448.429688c-4.425781 0-8-3.585938-8-8s3.574219-8 8-8h448.4375c4.425781 0 8 3.585938 8 8s-3.582031 8-8.007812 8zm0 0"/></svg>