<?xml version="1.0" encoding="utf-8"?>
<!-- Generator: Adobe Illustrator 25.0.0, SVG Export Plug-In . SVG Version: 6.00 Build 0)  -->
<svg version="1.1" id="Layer_1" xmlns="http://www.w3.org/2000/svg" xmlns:xlink="http://www.w3.org/1999/xlink" x="0px" y="0px"
	 viewBox="0 0 512 512" style="enable-background:new 0 0 512 512;" xml:space="preserve">
<style type="text/css">
	.st0{fill:#FFFFFF;}
</style>
<g>
	<g>
		<path class="st0" d="M512,484.5l-4.6-71.9c-2.1-32.7-23.4-60.9-54.3-71.9l-15.6-5.5l-5.1-1.8l-84.6-29.9c-0.3-0.1-0.7-0.2-1-0.3
			c-0.1,0-0.3-0.1-0.4-0.1c-0.2,0-0.4-0.1-0.6-0.1c-0.2,0-0.4-0.1-0.6-0.1c-0.1,0-0.3,0-0.4-0.1c-0.2,0-0.4,0-0.7-0.1
			c-0.1,0-0.2,0-0.3,0c-0.2,0-0.4,0-0.6,0c-0.7,0-1.3,0.1-2,0.2c0,0-0.1,0-0.1,0c-2.1,0.3-4,1.1-5.7,2.3c-0.2,0.1-0.3,0.2-0.5,0.4
			c-0.1,0.1-0.3,0.2-0.4,0.3c-0.2,0.2-0.5,0.4-0.7,0.7l-26.5-8.2l0-20.2c25.2-16.9,44.7-47.6,45.8-76.1h0.7c11.1,0,20.1-9,20.1-20.1
			v-18.8c0-2.4-0.5-4.8-1.3-6.9c4.9-2.6,8.2-7.8,8.2-13.8V132c0-7.6-5.4-14-12.5-15.3v-3c0-0.9,0-1.8,0-2.6
			c-0.2-9.1-1.7-18.1-4.3-26.7c-1.2-4-5.4-6.2-9.4-5c-4,1.2-6.2,5.4-5,9.4c2.2,7.3,3.5,14.9,3.7,22.6c0,0.7,0,1.5,0,2.3v10.2
			c0,4.1,3.4,7.5,7.5,7.5h4.7c0.1,0,0.4,0.2,0.4,0.6v10.5c0,0.4-0.2,0.6-0.4,0.6H146.4c-0.1,0-0.4-0.2-0.4-0.6V132
			c0-0.4,0.2-0.6,0.4-0.6h4.7c4.1,0,7.5-3.4,7.5-7.5v-10.2c0-0.8,0-1.5,0-2.3c1-39.6,30.1-73.1,67.8-79.8v27.6v0
			c0,6.8,2.8,13.1,7.2,17.6c0.1,0.1,0.1,0.1,0.2,0.2c0.1,0.1,0.1,0.1,0.2,0.2c4.5,4.4,10.7,7.2,17.6,7.2h0h8.9h0
			c6.8,0,13-2.8,17.6-7.2c0.1-0.1,0.1-0.1,0.2-0.2c0.1-0.1,0.1-0.1,0.2-0.2c4.5-4.5,7.2-10.8,7.2-17.6v0V31.6
			c20.5,3.6,39,15.1,51.7,32.4c2.4,3.3,7.1,4.1,10.5,1.6c3.3-2.4,4.1-7.1,1.6-10.5c-16.1-21.9-40.1-36-66.5-39.1
			c-4.2-8.2-12.6-13.8-22.4-13.8h-8.9c-9.8,0-18.3,5.6-22.4,13.8C207,18.7,186.5,29,170.8,45.3c-16.9,17.7-26.6,41-27.2,65.7
			c0,0.9,0,1.8,0,2.6v3c-7.1,1.3-12.5,7.7-12.5,15.3v10.5c0,6,3.3,11.2,8.2,13.8c-0.8,2.2-1.3,4.5-1.3,6.9V182
			c0,11.1,9,20.1,20.1,20.1h0.7c1,28.5,20.6,59.4,45.8,76.3l0,20l-26.5,8.2c-0.2-0.2-0.5-0.4-0.7-0.7c-0.1-0.1-0.2-0.2-0.4-0.3
			c-0.2-0.1-0.3-0.2-0.5-0.4c-1.7-1.2-3.6-2-5.7-2.3c0,0,0,0-0.1,0c-0.7-0.1-1.3-0.2-2-0.2c-0.2,0-0.4,0-0.6,0c-0.1,0-0.2,0-0.2,0
			c-0.2,0-0.4,0-0.7,0.1c-0.1,0-0.3,0-0.4,0.1c-0.2,0-0.4,0.1-0.6,0.1c-0.2,0-0.4,0.1-0.5,0.1c-0.1,0-0.3,0.1-0.4,0.1
			c-0.3,0.1-0.7,0.2-1,0.3l-72.8,25.7l-17,6h0l-15.6,5.5C28,351.7,6.7,379.9,4.6,412.6l-0.6,8.6c-0.3,4.1,2.9,7.7,7,8
			c4.1,0.3,7.7-2.9,8-7l0.5-8.6c1.7-26.7,19.1-49.8,44.3-58.7l5.6-2v141.8H23.7c-2.4,0-4.7-1-6.3-2.7c-1.7-1.8-2.5-4.1-2.3-6.5
			l2.1-33c0.3-4.1-2.9-7.7-7-8c-4.1-0.3-7.7,2.9-8,7l-2.1,33c-0.4,6.5,1.9,13,6.4,17.7c4.5,4.7,10.7,7.5,17.2,7.5H77h56.7h244.5H435
			h53.4c6.5,0,12.8-2.7,17.2-7.5C510,497.5,512.4,491,512,484.5z M353.3,158.1h0.6c2.8,0,5.1,2.3,5.1,5.1V182c0,2.8-2.3,5.1-5.1,5.1
			h-0.6V158.1z M241.4,27.5c0-0.8,0.1-1.6,0.3-2.5c0,0,0-0.1,0-0.1c1.2-4.3,5.1-7.5,9.8-7.5h8.9c4.7,0,8.6,3.2,9.8,7.5
			c0,0,0,0.1,0,0.1c0.2,0.9,0.3,1.7,0.3,2.5v31.7c0,2.8-1.1,5.3-3,7.2c0,0,0,0,0,0c-0.1,0.1-0.2,0.2-0.3,0.3
			c-1.8,1.7-4.2,2.7-6.9,2.7h-8.9c-2.7,0-5.1-1-6.9-2.7c-0.1-0.1-0.2-0.2-0.3-0.3c0,0,0,0,0,0c-1.8-1.8-3-4.4-3-7.2L241.4,27.5
			L241.4,27.5z M158.7,187.1H158c-2.8,0-5.1-2.3-5.1-5.1v-18.8c0-2.8,2.3-5.1,5.1-5.1h0.6V187.1z M126.3,494.7H84.5V347.6l26.8-9.5
			l14.9-5.3C126.3,332.9,126.3,494.7,126.3,494.7z M173.7,199.7v-5.1v-36.5h164.6v36.5l0,0v4.9c0,25.8-20.8,56.4-45.2,69.8
			c-0.1,0-0.1,0.1-0.2,0.1c-0.8,0.4-1.6,0.8-2.4,1.2c-0.1,0.1-0.3,0.1-0.4,0.2c-1.7,0.8-3.4,1.6-5.1,2.2c-0.2,0.1-0.5,0.2-0.7,0.3
			c-0.6,0.2-1.3,0.4-1.9,0.6c-0.2,0.1-0.5,0.2-0.7,0.2c-0.8,0.3-1.7,0.5-2.5,0.7l-1,0.2c-1.8,0.4-3.5,0.9-5.1,1.2
			c-7,1.6-12.5,2.5-17.6,2.5c-6.4,0-13-1.4-23-3.9c-0.8-0.2-1.7-0.5-2.5-0.7c-0.2-0.1-0.4-0.1-0.7-0.2c-0.7-0.2-1.3-0.4-2-0.7
			c-0.2-0.1-0.4-0.1-0.6-0.2c-1.8-0.7-3.5-1.4-5.2-2.3c-0.1,0-0.1-0.1-0.2-0.1C195.9,258.3,173.7,226.4,173.7,199.7z M210.4,312.3
			c5.5-1.7,9.1-6.7,9.1-12.4l0-13.4c0.6,0.2,1.1,0.4,1.7,0.7c0.5,0.2,1,0.4,1.5,0.6c0.7,0.3,1.5,0.5,2.2,0.8
			c0.3,0.1,0.6,0.2,0.9,0.3c1,0.3,2,0.6,3,0.8c2.6,0.6,4.9,1.2,7.2,1.7c0.7,0.1,1.3,0.3,2,0.4c0.1,0,0.2,0,0.2,0.1
			c6.3,1.4,11.7,2.1,17.2,2.1c0,0,0.1,0,0.1,0c0,0,0,0,0,0c5.9,0,11.8-0.9,18.8-2.4c2.4-0.5,4.9-1.1,7.5-1.8l1-0.2
			c1-0.2,2-0.5,3-0.8c0.3-0.1,0.7-0.2,1-0.3c0.7-0.2,1.4-0.4,2.1-0.7c0.4-0.1,0.7-0.3,1.1-0.4c0.8-0.3,1.6-0.6,2.4-0.9l0,13.6
			c0,5.7,3.7,10.7,9.1,12.4l20.1,6.2c-0.1,0.1-0.1,0.1-0.2,0.2c-1,0.9-2,1.7-3,2.5c-0.2,0.1-0.4,0.3-0.5,0.4c-1,0.8-2,1.6-3.1,2.4
			c-0.2,0.1-0.4,0.3-0.5,0.4c-1.1,0.8-2.1,1.5-3.2,2.2c-0.1,0.1-0.3,0.2-0.4,0.3c-1.1,0.7-2.3,1.5-3.4,2.2c0,0-0.1,0.1-0.2,0.1
			c-1.1,0.7-2.3,1.3-3.5,2c-0.2,0.1-0.3,0.2-0.5,0.3c-1.1,0.6-2.3,1.2-3.4,1.7c-0.2,0.1-0.4,0.2-0.7,0.3c-1.1,0.5-2.3,1.1-3.4,1.5
			c-0.2,0.1-0.5,0.2-0.7,0.3c-1.1,0.5-2.3,0.9-3.5,1.4c-0.2,0.1-0.5,0.2-0.7,0.3c-1.2,0.4-2.4,0.9-3.6,1.2c-0.2,0.1-0.4,0.1-0.6,0.2
			c-1.2,0.4-2.4,0.8-3.7,1.1c-0.1,0-0.2,0.1-0.4,0.1c-1.2,0.3-2.5,0.6-3.7,0.9c-0.2,0-0.4,0.1-0.6,0.1c-1.2,0.3-2.5,0.5-3.8,0.8
			c-0.3,0-0.5,0.1-0.8,0.1c-1.2,0.2-2.5,0.4-3.7,0.6c-0.3,0-0.5,0.1-0.8,0.1c-1.3,0.2-2.5,0.3-3.8,0.4c-0.2,0-0.5,0-0.7,0.1
			c-1.3,0.1-2.6,0.2-4,0.3c-0.2,0-0.3,0-0.5,0c-1.4,0.1-2.8,0.1-4.2,0.1c0,0,0,0,0,0c-1.4,0-2.9,0-4.3-0.1c-0.1,0-0.3,0-0.4,0
			c-1.4-0.1-2.7-0.2-4.1-0.3c-0.2,0-0.4,0-0.6,0c-1.3-0.1-2.7-0.3-4-0.4c-0.2,0-0.4-0.1-0.6-0.1c-1.3-0.2-2.6-0.4-3.9-0.6
			c-0.2,0-0.3-0.1-0.5-0.1c-1.3-0.2-2.7-0.5-4-0.8c-0.1,0-0.2,0-0.3-0.1c-2.8-0.6-5.5-1.4-8.2-2.3c-0.1,0-0.2-0.1-0.3-0.1
			c-1.3-0.4-2.6-0.9-3.8-1.3c-0.2-0.1-0.3-0.1-0.5-0.2c-1.2-0.5-2.5-1-3.7-1.5c-0.2-0.1-0.3-0.1-0.5-0.2c-1.2-0.5-2.4-1.1-3.6-1.6
			c-0.2-0.1-0.3-0.2-0.5-0.2c-1.2-0.6-2.4-1.2-3.6-1.8c-0.1-0.1-0.2-0.1-0.3-0.2c-2.5-1.3-4.9-2.8-7.2-4.3c-0.1-0.1-0.2-0.1-0.3-0.2
			c-1.1-0.7-2.2-1.5-3.3-2.3c-0.2-0.1-0.3-0.2-0.5-0.4c-1-0.8-2.1-1.6-3.1-2.4c-0.2-0.1-0.4-0.3-0.5-0.4c-1-0.8-2-1.7-3-2.5
			c-0.1-0.1-0.1-0.1-0.2-0.2L210.4,312.3z M168.3,318l6.5,6.6c21.6,21.6,50.3,33.5,81.1,33.5c0,0,0.1,0,0.1,0c0,0,0,0,0,0
			c19.1,0,37.4-4.6,53.7-13.2c9.1-4.8,17.6-10.9,25.3-18.2c0,0,0.1-0.1,0.1-0.1c0.4-0.4,0.9-0.8,1.3-1.3c0.2-0.2,0.5-0.5,0.7-0.7
			l0,0l6.5-6.6l5.9,2.1l2.4,0.9l-9.6,9.8c-23.1,22.9-53.8,35.5-86.5,35.5s-63.4-12.6-86.5-35.5L160,321L168.3,318z M370.7,494.7
			H141.3V327.6l3.1-1.1l14.4,14.8c0,0,0.1,0.1,0.1,0.1c25.9,25.7,60.4,39.9,97.1,39.9s71.2-14.2,97.1-39.9c0,0,0.1-0.1,0.1-0.1
			l14.4-14.8l3.1,1.1V494.7z M427.5,494.7h-41.7V332.9l14.9,5.3l26.8,9.5V494.7z M494.6,492c-1.7,1.8-3.9,2.7-6.3,2.7h-45.9V352.9
			l5.6,2c25.2,8.9,42.6,31.9,44.3,58.7l4.6,71.9C497.1,487.9,496.3,490.2,494.6,492z"/>
	</g>
</g>
</svg>
