<svg height="512pt" viewBox="0 -68 512 512" width="512pt" xmlns="http://www.w3.org/2000/svg"><path d="m320 375.984375c-26.472656 0-48-21.527344-48-48s21.527344-48 48-48c4.425781 0 8 3.574219 8 8 0 4.421875-3.574219 8-8 8-17.648438 0-32 14.351563-32 32s14.351562 32 32 32c4.425781 0 8 3.574219 8 8 0 4.421875-3.574219 8-8 8zm0 0"/><path d="m504 295.984375h-184c-4.425781 0-8-3.578125-8-8 0-4.425781 3.574219-8 8-8h184c4.425781 0 8 3.574219 8 8 0 4.421875-3.574219 8-8 8zm0 0"/><path d="m504 375.984375h-184c-4.425781 0-8-3.578125-8-8 0-4.425781 3.574219-8 8-8h184c4.425781 0 8 3.574219 8 8 0 4.421875-3.574219 8-8 8zm0 0"/><path d="m488 375.984375c-4.425781 0-8-3.578125-8-8v-80c0-4.425781 3.574219-8 8-8s8 3.574219 8 8v80c0 4.421875-3.574219 8-8 8zm0 0"/><path d="m456 271.984375c-4.425781 0-8-3.578125-8-8 0-4.425781 3.574219-8 8-8 13.230469 0 24-10.769531 24-24s-10.769531-24-24-24c-4.425781 0-8-3.578125-8-8 0-4.417969 3.574219-8 8-8 22.054688 0 40 17.945313 40 40s-17.945312 40-40 40zm0 0"/><path d="m456 271.984375h-152c-4.425781 0-8-3.578125-8-8 0-4.425781 3.574219-8 8-8h152c4.425781 0 8 3.574219 8 8 0 4.421875-3.574219 8-8 8zm0 0"/><path d="m456 207.984375h-152c-4.425781 0-8-3.578125-8-8 0-4.417969 3.574219-8 8-8h152c4.425781 0 8 3.582031 8 8 0 4.421875-3.574219 8-8 8zm0 0"/><path d="m320 271.984375c-4.425781 0-8-3.578125-8-8v-64c0-4.417969 3.574219-8 8-8s8 3.582031 8 8v64c0 4.421875-3.574219 8-8 8zm0 0"/><path d="m8 311.96875c-4.425781 0-8-3.578125-8-8 0-30.863281 25.128906-55.984375 56-55.984375 4.425781 0 8 3.574219 8 8 0 4.421875-3.574219 8-8 8-22.054688 0-40 17.9375-40 39.984375 0 4.421875-3.574219 8-8 8zm0 0"/><path d="m88 263.984375h-32c-4.425781 0-8-3.578125-8-8 0-4.425781 3.574219-8 8-8h32c4.425781 0 8 3.574219 8 8 0 4.421875-3.574219 8-8 8zm0 0"/><path d="m8 359.984375c-4.425781 0-8-3.578125-8-8v-45.71875c0-4.425781 3.574219-8 8-8s8 3.574219 8 8v45.71875c0 4.421875-3.574219 8-8 8zm0 0"/><path d="m248 311.96875c-4.425781 0-8-3.578125-8-8 0-22.046875-17.945312-39.984375-40-39.984375-4.425781 0-8-3.578125-8-8 0-4.425781 3.574219-8 8-8 30.871094 0 56 25.121094 56 55.984375 0 4.421875-3.574219 8-8 8zm0 0"/><path d="m200 263.984375h-32c-4.425781 0-8-3.578125-8-8 0-4.425781 3.574219-8 8-8h32c4.425781 0 8 3.574219 8 8 0 4.421875-3.574219 8-8 8zm0 0"/><path d="m248 359.984375c-4.425781 0-8-3.578125-8-8v-45.71875c0-4.425781 3.574219-8 8-8s8 3.574219 8 8v45.71875c0 4.421875-3.574219 8-8 8zm0 0"/><path d="m232 375.984375h-208c-4.425781 0-8-3.578125-8-8 0-4.425781 3.574219-8 8-8h208c4.425781 0 8 3.574219 8 8 0 4.421875-3.574219 8-8 8zm0 0"/><path d="m88 263.984375c-4.425781 0-8-3.578125-8-8v-25.609375c0-4.421875 3.574219-8 8-8s8 3.578125 8 8v25.609375c0 4.421875-3.574219 8-8 8zm0 0"/><path d="m168 263.984375c-4.425781 0-8-3.578125-8-8v-25.609375c0-4.421875 3.574219-8 8-8s8 3.578125 8 8v25.609375c0 4.421875-3.574219 8-8 8zm0 0"/><path d="m128 247.984375c-52.9375 0-96-43.0625-96-96 0-4.417969 3.574219-8 8-8s8 3.582031 8 8c0 44.113281 35.886719 80 80 80s80-35.886719 80-80c0-4.417969 3.574219-8 8-8s8 3.582031 8 8c0 52.9375-43.0625 96-96 96zm0 0"/><path d="m40 160c-4.425781 0-8-3.585938-8-8v-72c0-4.414062 3.574219-8 8-8s8 3.585938 8 8v72c0 4.414062-3.574219 8-8 8zm0 0"/><path d="m216 160c-4.425781 0-8-3.585938-8-8v-72c0-4.414062 3.574219-8 8-8s8 3.585938 8 8v72c0 4.414062-3.574219 8-8 8zm0 0"/><path d="m216 88c-4.425781 0-8-3.585938-8-8 0-17.648438-14.351562-32-32-32-4.425781 0-8-3.585938-8-8s3.574219-8 8-8c26.472656 0 48 21.527344 48 48 0 4.414062-3.574219 8-8 8zm0 0"/><path d="m176 48c-4.425781 0-8-3.585938-8-8v-32c0-4.414062 3.574219-8 8-8s8 3.585938 8 8v32c0 4.414062-3.574219 8-8 8zm0 0"/><path d="m176 16h-64c-4.425781 0-8-3.585938-8-8s3.574219-8 8-8h64c4.425781 0 8 3.585938 8 8s-3.574219 8-8 8zm0 0"/><path d="m40 88c-4.425781 0-8-3.585938-8-8 0-44.113281 35.886719-80 80-80 4.425781 0 8 3.585938 8 8s-3.574219 8-8 8c-35.289062 0-64 28.710938-64 64 0 4.414062-3.574219 8-8 8zm0 0"/><path d="m216 128c-2.046875 0-4.097656-.785156-5.65625-2.34375l-24-24c-3.128906-3.128906-3.128906-8.183594 0-11.3125s8.183594-3.128906 11.3125 0l24 24c3.128906 3.128906 3.128906 8.183594 0 11.3125-1.558594 1.566406-3.609375 2.34375-5.65625 2.34375zm0 0"/><path d="m128 120c-35.878906 0-66.503906-16.265625-67.792969-16.960938-3.886719-2.085937-5.34375-6.933593-3.253906-10.824218 2.085937-3.878906 6.917969-5.351563 10.832031-3.261719.277344.152344 28.480469 15.046875 60.214844 15.046875 31.894531 0 59.929688-14.894531 60.207031-15.039062 3.882813-2.113282 8.746094-.640626 10.832031 3.246093 2.097657 3.890625.632813 8.746094-3.253906 10.832031-1.28125.695313-31.90625 16.960938-67.785156 16.960938zm0 0"/><path d="m40 128c-2.046875 0-4.097656-.785156-5.65625-2.34375-3.128906-3.128906-3.128906-8.183594 0-11.3125l24-24c3.128906-3.128906 8.183594-3.128906 11.3125 0s3.128906 8.183594 0 11.3125l-24 24c-1.558594 1.566406-3.609375 2.34375-5.65625 2.34375zm0 0"/><path d="m112 279.984375c-1.519531 0-3.0625-.441406-4.433594-1.34375l-24.007812-16c-3.671875-2.457031-4.671875-7.417969-2.214844-11.097656 2.449219-3.679688 7.398438-4.664063 11.097656-2.214844l24.007813 16c3.671875 2.457031 4.671875 7.414063 2.214843 11.097656-1.535156 2.308594-4.078124 3.558594-6.664062 3.558594zm0 0"/><path d="m112.015625 279.984375c-2.9375 0-5.757813-1.617187-7.167969-4.425781-1.976562-3.949219-.375-8.757813 3.578125-10.734375l15.988281-8c3.953126-1.960938 8.761719-.375 10.738282 3.574219 1.976562 3.953124.375 8.761718-3.578125 10.738281l-15.988281 8c-1.144532.574219-2.371094.847656-3.570313.847656zm0 0"/><path d="m144 279.984375c-2.585938 0-5.128906-1.25-6.664062-3.558594-2.457032-3.683593-1.457032-8.640625 2.214843-11.097656l24.007813-16c3.679687-2.449219 8.648437-1.464844 11.097656 2.214844 2.457031 3.679687 1.457031 8.640625-2.214844 11.097656l-24.007812 16c-1.371094.910156-2.914063 1.34375-4.433594 1.34375zm0 0"/><path d="m143.984375 279.984375c-1.199219 0-2.425781-.273437-3.570313-.839844l-15.988281-8c-3.953125-1.976562-5.554687-6.785156-3.578125-10.738281 1.984375-3.949219 6.785156-5.535156 10.738282-3.574219l15.988281 8c3.953125 1.976563 5.554687 6.785157 3.578125 10.734375-1.410156 2.800782-4.230469 4.417969-7.167969 4.417969zm0 0"/><path d="m232 375.984375c-4.425781 0-8-3.578125-8-8 0-4.425781 3.574219-8 8-8 4.414062 0 8-3.585937 8-8 0-4.425781 3.574219-8 8-8s8 3.574219 8 8c0 13.238281-10.769531 24-24 24zm0 0"/><path d="m24 375.984375c-13.230469 0-24-10.769531-24-24 0-4.425781 3.574219-8 8-8s8 3.574219 8 8c0 4.414063 3.585938 8 8 8 4.425781 0 8 3.574219 8 8 0 4.421875-3.574219 8-8 8zm0 0"/><path d="m136.015625 376.160156c-.726563 0-1.472656-.097656-2.199219-.304687-4.25-1.207031-6.710937-5.640625-5.503906-9.886719l31.992188-112.167969c1.214843-4.25 5.65625-6.722656 9.886718-5.503906 4.25 1.207031 6.710938 5.640625 5.503906 9.886719l-31.992187 112.167968c-1.007813 3.519532-4.207031 5.808594-7.6875 5.808594zm0 0"/><path d="m152.015625 376.160156c-1.273437 0-2.566406-.304687-3.777344-.953125-3.894531-2.085937-5.359375-6.933593-3.261719-10.832031l36.359376-67.757812-2.808594-2.753907c-2.472656-2.421875-3.101563-6.160156-1.566406-9.253906l15.894531-32.167969c1.953125-3.953125 6.753906-5.578125 10.71875-3.625 3.960937 1.960938 5.585937 6.757813 3.625 10.71875l-13.328125 26.96875 2.953125 2.894532c2.535156 2.496093 3.136719 6.363281 1.449219 9.496093l-39.203126 73.050781c-1.4375 2.679688-4.207031 4.214844-7.054687 4.214844zm0 0"/><path d="m119.953125 376.160156c-3.480469 0-6.679687-2.289062-7.6875-5.808594l-31.992187-112.167968c-1.210938-4.246094 1.246093-8.679688 5.503906-9.886719 4.253906-1.175781 8.671875 1.246094 9.886718 5.503906l31.992188 112.167969c1.207031 4.246094-1.25 8.679688-5.503906 9.886719-.726563.199219-1.472656.304687-2.199219.304687zm0 0"/><path d="m103.953125 376.160156c-2.847656 0-5.617187-1.527344-7.058594-4.214844l-39.199219-73.050781c-1.6875-3.132812-1.09375-7 1.449219-9.496093l2.953125-2.894532-13.328125-26.96875c-1.960937-3.960937-.335937-8.757812 3.621094-10.71875 3.976563-1.960937 8.769531-.328125 10.722656 3.625l15.894531 32.167969c1.527344 3.101563.894532 6.832031-1.566406 9.253906l-2.808594 2.753907 36.359376 67.757812c2.097656 3.890625.632812 8.746094-3.265626 10.832031-1.207031.648438-2.503906.953125-3.773437.953125zm0 0"/><path d="m120 304.160156c-3.359375 0-6.488281-2.128906-7.59375-5.496094l-7.992188-24.167968c-1.390624-4.183594.890626-8.71875 5.089844-10.105469 4.183594-1.4375 8.71875.890625 10.105469 5.089844l7.992187 24.167969c1.390626 4.183593-.890624 8.71875-5.089843 10.105468-.832031.277344-1.679688.40625-2.511719.40625zm0 0"/><path d="m136 304c-.832031 0-1.6875-.136719-2.519531-.40625-4.191407-1.402344-6.464844-5.929688-5.074219-10.121094l7.992188-24.015625c1.402343-4.191406 5.921874-6.449219 10.121093-5.074219 4.191407 1.402344 6.464844 5.929688 5.074219 10.121094l-7.992188 24.015625c-1.121093 3.367188-4.25 5.480469-7.601562 5.480469zm0 0"/><path d="m110.839844 344.160156c-.59375 0-1.191406-.0625-1.800782-.199218-4.304687-.984376-6.992187-5.273438-6.007812-9.585938l9.167969-40c.992187-4.304688 5.273437-7.03125 9.585937-6.007812 4.304688.984374 6.992188 5.273437 6.007813 9.585937l-9.167969 40c-.839844 3.695313-4.128906 6.207031-7.785156 6.207031zm0 0"/><path d="m145.128906 344.160156c-3.648437 0-6.945312-2.511718-7.800781-6.222656l-9.128906-40.160156c-.984375-4.304688 1.710937-8.59375 6.023437-9.570313 4.28125-1.046875 8.585938 1.722657 9.578125 6.023438l9.136719 40.160156c.972656 4.304687-1.722656 8.59375-6.035156 9.570313-.589844.136718-1.191406.199218-1.773438.199218zm0 0"/><path d="m136 304.160156h-16c-4.425781 0-8-3.574218-8-8 0-4.425781 3.574219-8 8-8h16c4.425781 0 8 3.574219 8 8 0 4.425782-3.574219 8-8 8zm0 0"/><path d="m456.105469 48.160156h-111.953125c-4.425782 0-8-3.585937-8-8 0-4.417968 3.574218-8 8-8h111.953125c4.421875 0 8 3.582032 8 8 0 4.414063-3.585938 8-8 8zm0 0"/><path d="m400.136719 184.175781c-4.425781 0-8-3.582031-8-8v-160.015625c0-4.417968 3.574219-8 8-8 4.421875 0 8 3.582032 8 8v160.015625c0 4.417969-3.585938 8-8 8zm0 0"/><path d="m456.128906 184.175781h-111.984375c-4.425781 0-8-3.582031-8-8 0-4.414062 3.574219-8 8-8h111.984375c4.421875 0 8 3.585938 8 8 0 4.417969-3.585937 8-8 8zm0 0"/><path d="m344.152344 136.160156c-17.648438 0-32-14.351562-32-32 0-4.417968 3.574218-8 8-8 4.421875 0 8 3.582032 8 8 0 8.824219 7.175781 16 16 16 8.824218 0 16-7.175781 16-16 0-4.417968 3.574218-8 8-8 4.421875 0 8 3.582032 8 8 0 17.640625-14.351563 32-32 32zm0 0"/><path d="m368.152344 112.160156h-48c-4.425782 0-8-3.585937-8-8 0-4.417968 3.574218-8 8-8h48c4.421875 0 8 3.582032 8 8 0 4.414063-3.585938 8-8 8zm0 0"/><path d="m320.152344 112.160156c-.9375 0-1.878906-.167968-2.816406-.511718-4.136719-1.550782-6.222657-6.167969-4.679688-10.304688l24-64c1.542969-4.144531 6.160156-6.214844 10.304688-4.679688 4.136718 1.550782 6.222656 6.167969 4.679687 10.304688l-24 64c-1.199219 3.207031-4.257813 5.191406-7.488281 5.191406zm0 0"/><path d="m368.152344 112.160156c-3.230469 0-6.289063-1.984375-7.496094-5.191406l-24-64c-1.542969-4.136719.542969-8.746094 4.679688-10.304688 4.144531-1.527343 8.753906.542969 10.304687 4.679688l24 64c1.542969 4.136719-.542969 8.746094-4.679687 10.304688-.929688.34375-1.871094.511718-2.808594.511718zm0 0"/><path d="m456.105469 136.160156c-17.648438 0-32-14.351562-32-32 0-4.417968 3.574219-8 8-8 4.421875 0 8 3.582032 8 8 0 8.824219 7.175781 16 16 16s16-7.175781 16-16c0-4.417968 3.574219-8 8-8 4.421875 0 8 3.582032 8 8 0 17.640625-14.351563 32-32 32zm0 0"/><path d="m480.105469 112.160156h-48c-4.425781 0-8-3.585937-8-8 0-4.417968 3.574219-8 8-8h48c4.421875 0 8 3.582032 8 8 0 4.414063-3.585938 8-8 8zm0 0"/><path d="m432.105469 112.160156c-.9375 0-1.882813-.167968-2.816407-.511718-4.136718-1.550782-6.226562-6.167969-4.679687-10.304688l24-64c1.550781-4.144531 6.167969-6.214844 10.300781-4.679688 4.136719 1.550782 6.226563 6.167969 4.683594 10.304688l-24 64c-1.203125 3.207031-4.257812 5.191406-7.488281 5.191406zm0 0"/><path d="m480.105469 112.160156c-3.234375 0-6.289063-1.984375-7.496094-5.191406l-24-64c-1.546875-4.136719.542969-8.746094 4.679687-10.304688 4.136719-1.527343 8.75.542969 10.304688 4.679688l24 64c1.542969 4.136719-.546875 8.746094-4.683594 10.304688-.925781.34375-1.871094.511718-2.804687.511718zm0 0"/></svg>