<?xml version="1.0" encoding="utf-8"?>
<!-- Generator: Adobe Illustrator 25.0.0, SVG Export Plug-In . SVG Version: 6.00 Build 0)  -->
<svg version="1.1" id="Layer_1" xmlns="http://www.w3.org/2000/svg" xmlns:xlink="http://www.w3.org/1999/xlink" x="0px" y="0px"
	 viewBox="0 0 512 512" style="enable-background:new 0 0 512 512;" xml:space="preserve">
<style type="text/css">
	.st0{fill:#FFFFFF;}
</style>
<g id="outline">
	<path class="st0" d="M336,96c0,22.1,17.9,40,40,40s40-17.9,40-40s-17.9-40-40-40C353.9,56,336,73.9,336,96z M400,96
		c0,13.3-10.7,24-24,24s-24-10.7-24-24s10.7-24,24-24S400,82.7,400,96z"/>
	<path class="st0" d="M216,136c0,22.1,17.9,40,40,40s40-17.9,40-40s-17.9-40-40-40C233.9,96,216,113.9,216,136z M280,136
		c0,13.3-10.7,24-24,24c-13.3,0-24-10.7-24-24s10.7-24,24-24C269.3,112,280,122.7,280,136z"/>
	<path class="st0" d="M104,96c0,22.1,17.9,40,40,40s40-17.9,40-40s-17.9-40-40-40C121.9,56,104,73.9,104,96z M168,96
		c0,13.3-10.7,24-24,24s-24-10.7-24-24s10.7-24,24-24S168,82.7,168,96z"/>
	<path class="st0" d="M468,224.3c-11.7,2.3-20.2,12.6-20,24.5v35.8l-24,24l-2.3-2.3c-5.7-5.9-13.5-9.3-21.7-9.4
		c-5.7,0-11.2,1.7-16,4.8V296h40c4.4,0,8-3.6,8-8v-62.2c9.7,5.5,21.8,3.8,29.7-4.1c9.7-9.8,9.7-25.5,0-35.3l-32-32
		c-1.5-1.5-3.5-2.3-5.7-2.3h-96c-2.1,0-4.2,0.8-5.7,2.4L284.7,192h-57.8l-45.8-38.1c-1.4-1.2-3.2-1.9-5.1-1.9h-64
		c-2.1,0-4.1,0.8-5.5,2.3L62.5,197c-10.6,9.1-11.8,25-2.7,35.6c3.7,4.3,8.7,7.2,14.3,8.3c1.6,0.3,3.3,0.5,4.9,0.5
		c5.6,0,11.1-1.9,15.4-5.4L88,287c-0.5,4.4,2.6,8.4,6.9,8.9c0.3,0,0.7,0.1,1,0.1h40v12.3l-2.3-2c-11.8-12-31-12.1-43-0.3
		c-0.1,0.1-0.2,0.2-0.3,0.3l-2.3,2.3l-24-24v-35.8c0.2-11.9-8.3-22.3-20-24.5c-13.1-2.2-25.5,6.6-27.7,19.7c-0.2,1.3-0.3,2.7-0.3,4
		v56c0,1.2,0.3,2.5,0.8,3.6l40,80c0.6,1.2,1.4,2.2,2.5,2.9l52.7,37.6V448c0,4.4,3.6,8,8,8h72c4.4,0,8-3.6,8-8v-64
		c0.2-13.6-5.7-26.6-16-35.4V296h8c4.4,0,8-3.6,8-8c0-0.3,0-0.7-0.1-1l-8-63.9l24.1,20.6V328c-0.1,13.2,10.6,23.9,23.8,24
		c6,0,11.8-2.2,16.2-6.2c9.8,8.9,24.9,8.2,33.8-1.6c4-4.4,6.3-10.2,6.2-16.2v-84.7l24-24v138.4c-5.4,7.7-8.2,16.9-8,26.3v64
		c0,4.4,3.6,8,8,8h72c4.4,0,8-3.6,8-8v-19.9l52.6-37.6c1.1-0.8,1.9-1.8,2.5-2.9l40-80c0.6-1.1,0.8-2.3,0.8-3.6v-56
		c0-13.3-10.7-24-24-24C470.7,224,469.3,224.1,468,224.3z M432,179.3l18.3,18.3c3.5,3.5,3.5,9.2,0,12.7c0,0,0,0,0,0
		c-3.5,3.4-9.1,3.4-12.7,0l-5.7-5.7V179.3z M98,207.2l-13.4,16.3c-4,3.1-9.8,2.4-12.9-1.6c-0.4-0.5-0.7-1-1-1.6
		c-1.9-4-0.9-8.8,2.6-11.5l27.9-27.2L98,207.2z M105.1,280l14-112h49.9l14,112H105.1z M168,296v38.9l-16-13.3V296H168z M184,440h-56
		v-16c0-2.6-1.3-5-3.4-6.5l-54.4-38.8L32,302.1V248c0-4.4,3.6-8,8-8c0.5,0,0.9,0,1.4,0.1c4,1,6.8,4.6,6.6,8.7V288
		c0,2.1,0.8,4.2,2.3,5.7l72,72l11.3-11.3L99.3,320l2.3-2.3c5-5.7,13.7-6.3,19.5-1.3c0.6,0.6,1.2,1.2,1.7,1.8l47.9,39.9
		c8.4,6,13.4,15.7,13.3,26V440z M216,222.6l-27-23.1l-2.5-20.4l29.5,24.6V222.6z M248,328c0,4.4-3.6,8-8,8s-8-3.6-8-8v-56h16V328z
		 M280,328c0,4.4-3.6,8-8,8s-8-3.6-8-8v-56h16V328z M280,256h-48v-48h48V256z M320,196.7l-24,24v-17.4l24-24V196.7z M336,168h80v112
		h-80V168z M336,296h32v18.9l-32,26.7V296z M480,302.1l-38.3,76.5l-54.4,38.8c-2.1,1.5-3.3,3.9-3.3,6.5v16h-56v-56
		c-0.2-6.8,2-13.4,6.2-18.6c0,0,0.1,0,0.1-0.1c2.1-2.6,4.4-5,6.9-7.2l48.5-40.4c5.1-5.7,13.9-6.2,19.6-1c0.4,0.3,0.7,0.7,1,1
		l2.3,2.3l-34.3,34.3l11.3,11.3l72-72c1.5-1.5,2.3-3.5,2.3-5.6v-39.1c-0.2-4.1,2.6-7.8,6.6-8.7c4.4-0.8,8.5,2.1,9.3,6.5
		c0.1,0.5,0.1,0.9,0.1,1.4V302.1z"/>
</g>
</svg>
