<svg id="Capa_1" enable-background="new 0 0 512 512" height="512" viewBox="0 0 512 512" width="512" xmlns="http://www.w3.org/2000/svg"><g><path d="m56.553 351.927c0-4.139 3.374-7.483 7.513-7.483 4.138 0 7.512 3.345 7.512 7.483v122.574h368.882v-279.107h-368.883v122.573c0 4.139-3.374 7.484-7.512 7.484-4.139 0-7.513-3.345-7.513-7.484v-122.573h-49.039c-4.139 0-7.513-3.373-7.513-7.512 0-2.607 1.361-4.932 3.402-6.265l82.037-63.526v-88.075c0-4.139 3.373-7.512 7.512-7.512h56.553c4.139 0 7.512 3.373 7.512 7.512v32.713l49.891-38.637c1.333-1.021 2.92-1.587 4.593-1.587h89.038c1.928 0 3.714.737 5.046 1.956l73.589 56.949c3.26 2.523 3.855 7.229 1.332 10.488-2.523 3.288-7.2 3.883-10.489 1.361l-72.002-55.759h-83.992c-61.543 47.623-123.084 95.275-184.626 142.898h34.669 383.877 34.669l-85.722-66.361c-3.26-2.523-3.855-7.2-1.333-10.488 2.523-3.26 7.2-3.855 10.489-1.333l103.042 79.741c3.26 2.523 3.884 7.229 1.36 10.489-1.446 1.842-3.6 2.948-5.924 2.948h-49.069v286.59c0 4.167-3.346 7.512-7.513 7.512h-383.876c-4.139 0-7.513-3.345-7.513-7.512v-130.057zm206.963-278.228v30.757h30.728c-1.502-7.739-5.301-14.684-10.687-20.041-5.357-5.386-12.302-9.185-20.041-10.716zm30.728 45.753h-30.728v30.756c7.739-1.531 14.684-5.329 20.041-10.686 5.386-5.386 9.185-12.303 10.687-20.07zm-45.724 30.756v-30.756h-30.757c1.502 7.767 5.329 14.684 10.687 20.07 5.386 5.357 12.303 9.155 20.07 10.686zm-30.756-45.752h30.757v-30.757c-7.768 1.531-14.684 5.33-20.07 10.716-5.358 5.357-9.185 12.302-10.687 20.041zm38.24-46.461c14.911 0 28.404 6.038 38.155 15.79 9.78 9.78 15.818 23.273 15.818 38.184 0 14.882-6.038 28.375-15.818 38.155-9.751 9.752-23.245 15.79-38.155 15.79-14.882 0-28.376-6.038-38.155-15.79-9.751-9.78-15.818-23.273-15.818-38.155 0-14.91 6.066-28.404 15.818-38.184 9.779-9.752 23.273-15.79 38.155-15.79zm-113.984-20.495h-41.585v68.997l41.585-32.174zm72.257 337.983h34.244v-100.972h-51.819l26.334 34.158c1.219 1.616 1.757 3.629 1.474 5.641-1.502 10.602-6.859 19.957-14.57 26.675-7.654 6.604-17.575 10.602-28.433 10.602-10.857 0-20.807-3.997-28.432-10.602-7.739-6.719-13.068-16.073-14.599-26.675-.312-2.211.369-4.337 1.729-5.924l35.009-45.497c1.332-2.041 3.656-3.401 6.292-3.401h67.013v-18.426c0-4.139 3.345-7.512 7.483-7.512s7.512 3.374 7.512 7.512v18.426h67.013c2.608 0 4.932 1.36 6.265 3.401l35.235 45.781c1.248 1.616 1.786 3.629 1.503 5.641-1.503 10.602-6.86 19.957-14.599 26.675-7.626 6.604-17.575 10.602-28.404 10.602-10.857 0-20.807-3.997-28.433-10.602-7.739-6.719-13.096-16.073-14.598-26.675-.312-2.211.368-4.337 1.701-5.896l26.108-33.903h-51.791v100.972h34.215c7.909 0 15.081 3.232 20.296 8.448 5.188 5.188 8.419 12.359 8.419 20.268s-3.232 15.109-8.419 20.296c-5.216 5.216-12.387 8.419-20.296 8.419h-83.454c-7.909 0-15.081-3.203-20.296-8.419-5.188-5.187-8.419-12.388-8.419-20.296 0-7.909 3.231-15.081 8.419-20.268 5.217-5.217 12.389-8.449 20.298-8.449zm83.454 14.996h-41.727-41.727c-3.77 0-7.2 1.559-9.667 4.053-2.495 2.495-4.054 5.925-4.054 9.667 0 3.77 1.559 7.2 4.054 9.694 2.466 2.495 5.896 4.026 9.667 4.026h83.454c3.77 0 7.2-1.531 9.695-4.026s4.025-5.924 4.025-9.694c0-3.742-1.531-7.172-4.025-9.667-2.495-2.494-5.925-4.053-9.695-4.053zm51.422-60.805c4.337-3.77 7.54-8.816 8.986-14.542l-27.61-35.887-27.638 35.887c1.445 5.727 4.649 10.772 8.986 14.542 4.989 4.309 11.48 6.917 18.652 6.917 7.143 0 13.663-2.608 18.624-6.917zm-149.022 0c4.337-3.77 7.541-8.816 8.987-14.542l-27.611-35.887-27.61 35.887c1.446 5.727 4.621 10.772 8.958 14.542 4.989 4.309 11.509 6.917 18.652 6.917 7.144 0 13.664-2.608 18.624-6.917z"/></g></svg>