<?xml version="1.0" encoding="utf-8"?>
<!-- Generator: Adobe Illustrator 25.0.0, SVG Export Plug-In . SVG Version: 6.00 Build 0)  -->
<svg version="1.1" id="Capa_1" xmlns="http://www.w3.org/2000/svg" xmlns:xlink="http://www.w3.org/1999/xlink" x="0px" y="0px"
	 viewBox="0 0 512 512" style="enable-background:new 0 0 512 512;" xml:space="preserve">
<style type="text/css">
	.st0{fill:#FFFFFF;}
</style>
<g>
	<path class="st0" d="M56.6,351.9c0-4.1,3.4-7.5,7.5-7.5c4.1,0,7.5,3.3,7.5,7.5v122.6h368.9V195.4H71.6V318c0,4.1-3.4,7.5-7.5,7.5
		c-4.1,0-7.5-3.3-7.5-7.5V195.4h-49c-4.1,0-7.5-3.4-7.5-7.5c0-2.6,1.4-4.9,3.4-6.3l82-63.5V30c0-4.1,3.4-7.5,7.5-7.5h56.6
		c4.1,0,7.5,3.4,7.5,7.5v32.7l49.9-38.6c1.3-1,2.9-1.6,4.6-1.6h89c1.9,0,3.7,0.7,5,2l73.6,56.9c3.3,2.5,3.9,7.2,1.3,10.5
		c-2.5,3.3-7.2,3.9-10.5,1.4l-72-55.8h-84C152.5,85.1,90.9,132.8,29.4,180.4h34.7h383.9h34.7L396.9,114c-3.3-2.5-3.9-7.2-1.3-10.5
		c2.5-3.3,7.2-3.9,10.5-1.3l103,79.7c3.3,2.5,3.9,7.2,1.4,10.5c-1.4,1.8-3.6,2.9-5.9,2.9h-49.1V482c0,4.2-3.3,7.5-7.5,7.5H64.1
		c-4.1,0-7.5-3.3-7.5-7.5L56.6,351.9L56.6,351.9z M263.5,73.7v30.8h30.7c-1.5-7.7-5.3-14.7-10.7-20C278.2,79,271.3,75.2,263.5,73.7z
		 M294.2,119.5h-30.7v30.8c7.7-1.5,14.7-5.3,20-10.7C288.9,134.1,292.7,127.2,294.2,119.5L294.2,119.5z M248.5,150.2v-30.8h-30.8
		c1.5,7.8,5.3,14.7,10.7,20.1C233.8,144.9,240.8,148.7,248.5,150.2z M217.8,104.5h30.8V73.7c-7.8,1.5-14.7,5.3-20.1,10.7
		C223.1,89.8,219.3,96.7,217.8,104.5z M256,58c14.9,0,28.4,6,38.2,15.8c9.8,9.8,15.8,23.3,15.8,38.2c0,14.9-6,28.4-15.8,38.2
		c-9.8,9.8-23.2,15.8-38.2,15.8c-14.9,0-28.4-6-38.2-15.8c-9.8-9.8-15.8-23.3-15.8-38.2c0-14.9,6.1-28.4,15.8-38.2
		C227.6,64,241.1,58,256,58z M142,37.5h-41.6v69L142,74.3V37.5z M214.3,375.5h34.2v-101h-51.8l26.3,34.2c1.2,1.6,1.8,3.6,1.5,5.6
		c-1.5,10.6-6.9,20-14.6,26.7c-7.7,6.6-17.6,10.6-28.4,10.6c-10.9,0-20.8-4-28.4-10.6c-7.7-6.7-13.1-16.1-14.6-26.7
		c-0.3-2.2,0.4-4.3,1.7-5.9l35-45.5c1.3-2,3.7-3.4,6.3-3.4h67v-18.4c0-4.1,3.3-7.5,7.5-7.5s7.5,3.4,7.5,7.5v18.4h67
		c2.6,0,4.9,1.4,6.3,3.4l35.2,45.8c1.2,1.6,1.8,3.6,1.5,5.6c-1.5,10.6-6.9,20-14.6,26.7c-7.6,6.6-17.6,10.6-28.4,10.6
		c-10.9,0-20.8-4-28.4-10.6c-7.7-6.7-13.1-16.1-14.6-26.7c-0.3-2.2,0.4-4.3,1.7-5.9l26.1-33.9h-51.8v101h34.2
		c7.9,0,15.1,3.2,20.3,8.4c5.2,5.2,8.4,12.4,8.4,20.3s-3.2,15.1-8.4,20.3c-5.2,5.2-12.4,8.4-20.3,8.4h-83.5
		c-7.9,0-15.1-3.2-20.3-8.4c-5.2-5.2-8.4-12.4-8.4-20.3c0-7.9,3.2-15.1,8.4-20.3C199.2,378.7,206.4,375.5,214.3,375.5L214.3,375.5z
		 M297.7,390.5H256h-41.7c-3.8,0-7.2,1.6-9.7,4.1c-2.5,2.5-4.1,5.9-4.1,9.7c0,3.8,1.6,7.2,4.1,9.7c2.5,2.5,5.9,4,9.7,4h83.5
		c3.8,0,7.2-1.5,9.7-4s4-5.9,4-9.7c0-3.7-1.5-7.2-4-9.7C304.9,392,301.5,390.5,297.7,390.5z M349.2,329.7c4.3-3.8,7.5-8.8,9-14.5
		l-27.6-35.9l-27.6,35.9c1.4,5.7,4.6,10.8,9,14.5c5,4.3,11.5,6.9,18.7,6.9C337.7,336.6,344.2,334,349.2,329.7z M200.1,329.7
		c4.3-3.8,7.5-8.8,9-14.5l-27.6-35.9l-27.6,35.9c1.4,5.7,4.6,10.8,9,14.5c5,4.3,11.5,6.9,18.7,6.9
		C188.7,336.6,195.2,334,200.1,329.7z"/>
</g>
</svg>
