<svg id="Capa_1" enable-background="new 0 0 511.996 511.996" height="512" viewBox="0 0 511.996 511.996" width="512" xmlns="http://www.w3.org/2000/svg"><g><path d="m449.733 35.067-193.75-34.926c-1.023-.188-2.062-.188-3.085 0l-190.659 34.927c-4.067.745-7.019 4.286-7.019 8.421v134.829c0 63.062 15.973 125.653 46.191 181.003s74.23 102.633 127.277 136.734l22.697 14.59c2.799 1.8 6.416 1.8 9.223 0l22.697-14.591c41.499-26.678 76.879-60.684 105.156-101.075 2.376-3.393 1.551-8.07-1.842-10.445s-8.069-1.549-10.445 1.843c-27.155 38.786-61.13 71.442-100.98 97.061l-19.197 12.341-19.197-12.342c-104.308-67.054-166.58-181.118-166.58-305.119v-129.462l184.23-33.749 187.326 33.767v129.444c0 62.561-16.305 124.401-47.15 178.836-2.042 3.604-.776 8.18 2.828 10.223 3.604 2.041 8.18.775 10.223-2.828 32.121-56.686 49.1-121.084 49.1-186.231v-134.827c-.001-4.143-2.961-7.686-7.044-8.424z"/><path d="m132.527 49.642-44.157 8.089c-3.562.653-6.148 3.756-6.148 7.377v113.209c0 58.555 14.831 116.671 42.89 168.064 28.059 51.395 68.925 95.297 118.18 126.96l8.651 5.562c2.47 1.588 5.641 1.589 8.111 0l8.651-5.562c49.255-31.663 90.121-75.565 118.181-126.96 28.059-51.396 42.89-109.511 42.89-168.064v-113.143c0-3.629-2.599-6.737-6.17-7.381l-167.798-30.247c-.886-.161-1.794-.159-2.682.003l-85.431 15.65c-4.074.747-6.772 4.654-6.025 8.729.746 4.074 4.65 6.771 8.729 6.026l84.09-15.404 160.286 28.893v106.875c0 56.049-14.197 111.679-41.056 160.877-26.859 49.197-65.978 91.221-113.126 121.53l-4.596 2.955-4.596-2.955c-47.148-30.309-86.267-72.333-113.125-121.53-26.859-49.196-41.056-104.826-41.056-160.877v-106.959l38.009-6.962c4.074-.747 6.772-4.654 6.025-8.729-.745-4.074-4.652-6.77-8.727-6.026z"/><path d="m145.686 220.89c-4.794 0-8.694 3.9-8.694 8.694v17.092c0 11.619 9.453 21.072 21.072 21.072h36.573c11.619 0 21.072-9.453 21.072-21.072v-17.092c0-4.794-3.9-8.694-8.694-8.694h-3.126l-17.06-41.186c1.654-.46 20-7.357 45.74-10.192v115.104c-17.635.395-31.859 14.863-31.859 32.591v5.565c0 4.794 3.9 8.694 8.694 8.694h93.188c4.794 0 8.694-3.9 8.694-8.694v-5.565c0-17.728-14.224-32.196-31.859-32.591v-115.104c24.964 2.749 45.016 9.991 45.739 10.191l-17.059 41.186h-3.126c-4.795 0-8.695 3.9-8.695 8.694v17.092c0 11.619 9.453 21.072 21.072 21.072h36.574c11.619 0 21.072-9.453 21.072-21.072v-17.092c0-4.794-3.9-8.694-8.695-8.694h-3.126l-16.926-40.863c1.184-.575 2.33-1.258 3.427-2.049 5.967-4.301 9.39-10.987 9.39-18.344 0-9.749-6.214-18.37-15.461-21.452l-15.189-5.063c-15.141-5.047-30.829-8.507-46.69-10.302-4.301-6.145-10.744-10.686-18.237-12.529v-7.211c0-4.142-3.357-7.5-7.5-7.5s-7.5 3.358-7.5 7.5v7.211c-7.492 1.844-13.935 6.384-18.236 12.529-6.524.739-13.056 1.763-19.468 3.054-4.061.818-6.689 4.772-5.872 8.833.819 4.068 4.781 6.689 8.833 5.872 3.608-.726 7.256-1.363 10.92-1.904-.376 5.644.758 11.242 3.313 16.273-15.089 1.859-29.973 5.219-44.415 10.033-3.811.828-7.913 4.13-12.489.832-2.009-1.448-3.161-3.699-3.161-6.175 0-3.282 2.092-6.184 5.205-7.221l7.515-2.505c3.93-1.31 6.053-5.557 4.743-9.487s-5.558-6.053-9.487-4.744l-7.514 2.505c-9.248 3.082-15.462 11.703-15.462 21.452 0 7.356 3.423 14.042 9.391 18.344 1.097.79 2.242 1.474 3.426 2.048l-16.926 40.863h-3.127zm118.741-49.868v113.586h-16.858v-113.586c5.493 1.533 11.36 1.534 16.858 0zm31.844 145.444h-80.546c.39-9.362 8.128-16.859 17.584-16.859h45.378c9.456.001 17.194 7.497 17.584 16.859zm63.733-69.79c0 3.348-2.724 6.072-6.072 6.072h-36.574c-3.349 0-6.072-2.724-6.072-6.072v-10.786h48.719v10.786zm-35.662-25.786 11.303-27.289 11.303 27.289zm-.662-73.54 15.19 5.063c3.112 1.038 5.204 3.939 5.204 7.221 0 2.477-1.152 4.727-3.161 6.175-4.572 3.297-8.688-.004-12.489-.832-14.442-4.814-29.327-8.173-44.416-10.033 2.552-5.024 3.69-10.621 3.313-16.273 12.341 1.828 24.529 4.735 36.359 8.679zm-67.683-22.967c9.04 0 16.395 7.354 16.395 16.395 0 9.04-7.354 16.394-16.395 16.394-9.039 0-16.394-7.354-16.394-16.394.001-9.041 7.355-16.395 16.394-16.395zm-55.288 122.293c0 3.348-2.724 6.072-6.072 6.072h-36.573c-3.349 0-6.072-2.724-6.072-6.072v-10.786h48.718v10.786zm-24.359-53.076 11.304 27.289h-22.607z"/></g></svg>