<?xml version="1.0" encoding="utf-8"?>
<!-- Generator: Adobe Illustrator 25.0.0, SVG Export Plug-In . SVG Version: 6.00 Build 0)  -->
<svg version="1.1" id="Layer_1" xmlns="http://www.w3.org/2000/svg" xmlns:xlink="http://www.w3.org/1999/xlink" x="0px" y="0px"
	 viewBox="0 0 495 495" style="enable-background:new 0 0 495 495;" xml:space="preserve">
<style type="text/css">
	.st0{fill:#FFFFFF;}
</style>
<path class="st0" d="M79.8,431.1c-4.4,0-8-3.6-8-8c0-39.6,32.2-71.9,71.9-71.9c4.4,0,8,3.6,8,8c0,4.4-3.6,8-8,8
	c-30.8,0-55.9,25.1-55.9,55.9C87.8,427.6,84.2,431.1,79.8,431.1z"/>
<path class="st0" d="M415.2,431.1c-4.4,0-8-3.6-8-8c0-30.8-25.1-55.9-55.9-55.9c-4.4,0-8-3.6-8-8c0-4.4,3.6-8,8-8
	c39.6,0,71.9,32.2,71.9,71.9C423.2,427.6,419.6,431.1,415.2,431.1z"/>
<path class="st0" d="M191.6,367.2h-47.9c-4.4,0-8-3.6-8-8c0-4.4,3.6-8,8-8h47.9c4.4,0,8,3.6,8,8C199.6,363.7,196,367.2,191.6,367.2z
	"/>
<path class="st0" d="M79.8,495c-4.4,0-8-3.6-8-8l0-63.9c0-4.4,3.6-8,8-8c4.4,0,8,3.6,8,8l0,63.9C87.8,491.4,84.2,495,79.8,495z"/>
<path class="st0" d="M415.2,495c-4.4,0-8-3.6-8-8v-63.9c0-4.4,3.6-8,8-8c4.4,0,8,3.6,8,8V487C423.2,491.4,419.6,495,415.2,495z"/>
<path class="st0" d="M471.1,495H23.8c-4.4,0-8-3.6-8-8c0-4.4,3.6-8,8-8h447.3c4.4,0,8,3.6,8,8C479.1,491.4,475.6,495,471.1,495z"/>
<path class="st0" d="M191.6,367.2c-4.4,0-8-3.6-8-8v-45.8c0-4.4,3.6-8,8-8c4.4,0,8,3.6,8,8v45.8C199.6,363.7,196,367.2,191.6,367.2z
	"/>
<path class="st0" d="M303.4,367.2c-4.4,0-8-3.6-8-8v-45.8c0-4.4,3.6-8,8-8c4.4,0,8,3.6,8,8v45.8
	C311.4,363.7,307.8,367.2,303.4,367.2z"/>
<path class="st0" d="M247.5,335.3c-66.1,0-119.8-53.7-119.8-119.8c0-4.4,3.6-8,8-8c4.4,0,8,3.6,8,8c0,57.2,46.6,103.8,103.8,103.8
	s103.8-46.6,103.8-103.8c0-4.4,3.6-8,8-8c4.4,0,8,3.6,8,8C367.3,281.6,313.5,335.3,247.5,335.3z"/>
<path class="st0" d="M351.3,367.2h-47.9c-4.4,0-8-3.6-8-8c0-4.4,3.6-8,8-8h47.9c4.4,0,8,3.6,8,8
	C359.3,363.7,355.7,367.2,351.3,367.2z"/>
<path class="st0" d="M247.6,407.2c-1.6,0-3.2-0.5-4.6-1.5l-56.1-39.9c-3.6-2.6-4.4-7.5-1.9-11.1c2.6-3.6,7.5-4.4,11.1-1.9l56.1,39.9
	c3.6,2.6,4.4,7.5,1.9,11.1C252.6,406,250.1,407.2,247.6,407.2z"/>
<path class="st0" d="M247.6,407.2c-2.5,0-4.9-1.2-6.5-3.3c-2.6-3.6-1.7-8.6,1.8-11.1l55.8-39.9c3.6-2.6,8.6-1.7,11.1,1.8
	c2.6,3.6,1.7,8.6-1.8,11.1l-55.8,39.9C250.8,406.7,249.2,407.2,247.6,407.2z"/>
<path class="st0" d="M359.4,223.5c-4.4,0-8-3.6-8-8v-95.7c0-4.4,3.6-8,8-8c4.4,0,8,3.6,8,8v95.7
	C367.4,219.9,363.8,223.5,359.4,223.5z"/>
<path class="st0" d="M135.8,223.5c-4.4,0-8-3.6-8-8v-79.7c0-4.4,3.6-8,8-8c4.4,0,8,3.6,8,8v79.7
	C143.8,219.9,140.2,223.5,135.8,223.5z"/>
<path class="st0" d="M359.3,127.8c-4.4,0-8-3.6-8-8c0-22-17.9-39.9-39.9-39.9c-4.4,0-8-3.6-8-8c0-4.4,3.6-8,8-8
	c30.8,0,55.9,25.1,55.9,55.9C367.3,124.2,363.7,127.8,359.3,127.8z"/>
<path class="st0" d="M311.4,79.8c-4.4,0-8-3.6-8-8V39.9c0-4.4,3.6-8,8-8c4.4,0,8,3.6,8,8v31.9C319.4,76.3,315.8,79.8,311.4,79.8z"/>
<path class="st0" d="M311.4,47.9h-79.9c-4.4,0-8-3.6-8-8c0-4.4,3.6-8,8-8h79.9c4.4,0,8,3.6,8,8C319.4,44.3,315.8,47.9,311.4,47.9z"
	/>
<path class="st0" d="M135.7,143.7c-4.4,0-8-3.6-8-8c0-57.2,46.6-103.8,103.8-103.8c4.4,0,8,3.6,8,8c0,4.4-3.6,8-8,8
	c-48.4,0-87.9,39.4-87.9,87.8C143.7,140.2,140.1,143.7,135.7,143.7z"/>
<path class="st0" d="M359.3,191.7c-2,0-4.1-0.8-5.6-2.3l-24-24c-3.1-3.1-3.1-8.2,0-11.3c3.1-3.1,8.2-3.1,11.3,0l24,24
	c3.1,3.1,3.1,8.2,0,11.3C363.4,190.9,361.3,191.7,359.3,191.7z"/>
<path class="st0" d="M247.5,183.7c-44.2,0-88.7-15.8-90.6-16.4c-4.2-1.5-6.3-6.1-4.8-10.2c1.5-4.2,6.1-6.3,10.2-4.8
	c0.4,0.2,43.8,15.5,85.2,15.5c41.4,0,84.7-15.3,85.2-15.5c4.2-1.5,8.7,0.7,10.2,4.8c1.5,4.2-0.7,8.7-4.8,10.2
	C336.2,167.9,291.7,183.7,247.5,183.7z"/>
<path class="st0" d="M135.7,191.7c-2,0-4.1-0.8-5.6-2.3c-3.1-3.1-3.1-8.2,0-11.3l24-24c3.1-3.1,8.2-3.1,11.3,0
	c3.1,3.1,3.1,8.2,0,11.3l-24,24C139.7,190.9,137.7,191.7,135.7,191.7z"/>
<path class="st0" d="M319.1,431.2H175.6c-4.4,0-8-3.6-8-8c0-4.4,3.6-8,8-8h143.5c4.4,0,8,3.6,8,8
	C327.1,427.7,323.5,431.2,319.1,431.2z"/>
<path class="st0" d="M319.3,495c-4.4,0-8-3.6-8-8v-63.8c0-4.4,3.6-8,8-8c4.4,0,8,3.6,8,8V487C327.3,491.4,323.7,495,319.3,495z"/>
<path class="st0" d="M175.6,495c-4.4,0-8-3.6-8-8v-63.8c0-4.4,3.6-8,8-8c4.4,0,8,3.6,8,8V487C183.6,491.4,180,495,175.6,495z"/>
<path class="st0" d="M215,470.6c-2,0-4.1-0.8-5.6-2.3l-15.4-15.4c-3.1-3.1-3.1-8.2,0-11.3c3.1-3.1,8.2-3.1,11.3,0l15.4,15.4
	c3.1,3.1,3.1,8.2,0,11.3C219.1,469.8,217,470.6,215,470.6z"/>
<path class="st0" d="M199.6,471.2c-2,0-4.1-0.8-5.6-2.3c-3.1-3.1-3.1-8.2,0-11.3l16-16c3.1-3.1,8.2-3.1,11.3,0
	c3.1,3.1,3.1,8.2,0,11.3l-16,16C203.7,470.4,201.6,471.2,199.6,471.2z"/>
<path class="st0" d="M254.9,470.6c-2,0-4.1-0.8-5.6-2.3l-15.4-15.4c-3.1-3.1-3.1-8.2,0-11.3c3.1-3.1,8.2-3.1,11.3,0l15.4,15.4
	c3.1,3.1,3.1,8.2,0,11.3C259,469.8,257,470.6,254.9,470.6z"/>
<path class="st0" d="M239.5,471.2c-2,0-4.1-0.8-5.6-2.3c-3.1-3.1-3.1-8.2,0-11.3l16-16c3.1-3.1,8.2-3.1,11.3,0
	c3.1,3.1,3.1,8.2,0,11.3l-16,16C243.6,470.4,241.6,471.2,239.5,471.2z"/>
<path class="st0" d="M294.9,470.6c-2,0-4.1-0.8-5.6-2.3l-15.4-15.4c-3.1-3.1-3.1-8.2,0-11.3c3.1-3.1,8.2-3.1,11.3,0l15.4,15.4
	c3.1,3.1,3.1,8.2,0,11.3C299,469.8,296.9,470.6,294.9,470.6z"/>
<path class="st0" d="M279.5,471.2c-2,0-4.1-0.8-5.6-2.3c-3.1-3.1-3.1-8.2,0-11.3l16-16c3.1-3.1,8.2-3.1,11.3,0
	c3.1,3.1,3.1,8.2,0,11.3l-16,16C283.5,470.4,281.5,471.2,279.5,471.2z"/>
<path class="st0" d="M79.8,463.2H23.8c-4.4,0-8-3.6-8-8s3.6-8,8-8h56c4.4,0,8,3.6,8,8S84.2,463.2,79.8,463.2z"/>
<path class="st0" d="M79.8,431.2H23.8c-4.4,0-8-3.6-8-8s3.6-8,8-8h56c4.4,0,8,3.6,8,8S84.2,431.2,79.8,431.2z"/>
<path class="st0" d="M88.3,399.3H23.8c-4.4,0-8-3.6-8-8s3.6-8,8-8h64.5c4.4,0,8,3.6,8,8S92.7,399.3,88.3,399.3z"/>
<path class="st0" d="M143.7,367.4H23.8c-4.4,0-8-3.6-8-8s3.6-8,8-8h119.9c4.4,0,8,3.6,8,8S148.1,367.4,143.7,367.4z"/>
<path class="st0" d="M191.6,335.4H23.8c-4.4,0-8-3.6-8-8s3.6-8,8-8h167.8c4.4,0,8,3.6,8,8S196,335.4,191.6,335.4z"/>
<path class="st0" d="M169.4,303.5H23.8c-4.4,0-8-3.6-8-8s3.6-8,8-8h145.5c4.4,0,8,3.6,8,8S173.8,303.5,169.4,303.5z"/>
<path class="st0" d="M146.5,271.5H23.8c-4.4,0-8-3.6-8-8c0-4.4,3.6-8,8-8h122.7c4.4,0,8,3.6,8,8C154.5,268,150.9,271.5,146.5,271.5z
	"/>
<path class="st0" d="M136.8,239.6h-113c-4.4,0-8-3.6-8-8s3.6-8,8-8h113c4.4,0,8,3.6,8,8S141.2,239.6,136.8,239.6z"/>
<path class="st0" d="M135.7,207.6H23.8c-4.4,0-8-3.6-8-8c0-4.4,3.6-8,8-8h111.8c4.4,0,8,3.6,8,8
	C143.7,204.1,140.1,207.6,135.7,207.6z"/>
<path class="st0" d="M135.7,175.7H23.8c-4.4,0-8-3.6-8-8c0-4.4,3.6-8,8-8h111.8c4.4,0,8,3.6,8,8
	C143.7,172.1,140.1,175.7,135.7,175.7z"/>
<path class="st0" d="M135.8,143.7h-112c-4.4,0-8-3.6-8-8c0-4.4,3.6-8,8-8h112c4.4,0,8,3.6,8,8C143.8,140.2,140.2,143.7,135.8,143.7z
	"/>
<path class="st0" d="M141.1,111.8H23.8c-4.4,0-8-3.6-8-8c0-4.4,3.6-8,8-8h117.3c4.4,0,8,3.6,8,8
	C149.1,108.2,145.5,111.8,141.1,111.8z"/>
<path class="st0" d="M160,79.9H23.8c-4.4,0-8-3.6-8-8c0-4.4,3.6-8,8-8H160c4.4,0,8,3.6,8,8C168,76.3,164.4,79.9,160,79.9z"/>
<path class="st0" d="M247.5,47.9H23.8c-4.4,0-8-3.6-8-8s3.6-8,8-8h223.7c4.4,0,8,3.6,8,8S251.9,47.9,247.5,47.9z"/>
<path class="st0" d="M471.1,463.2h-56c-4.4,0-8-3.6-8-8s3.6-8,8-8h56c4.4,0,8,3.6,8,8S475.6,463.2,471.1,463.2z"/>
<path class="st0" d="M471.1,431.2h-56c-4.4,0-8-3.6-8-8s3.6-8,8-8h56c4.4,0,8,3.6,8,8S475.6,431.2,471.1,431.2z"/>
<path class="st0" d="M471.1,399.3h-64.5c-4.4,0-8-3.6-8-8s3.6-8,8-8h64.5c4.4,0,8,3.6,8,8S475.6,399.3,471.1,399.3z"/>
<path class="st0" d="M471.1,367.4H351.3c-4.4,0-8-3.6-8-8s3.6-8,8-8h119.9c4.4,0,8,3.6,8,8S475.6,367.4,471.1,367.4z"/>
<path class="st0" d="M471.1,335.4H303.4c-4.4,0-8-3.6-8-8s3.6-8,8-8h167.8c4.4,0,8,3.6,8,8S475.6,335.4,471.1,335.4z"/>
<path class="st0" d="M471.1,303.5H325.6c-4.4,0-8-3.6-8-8s3.6-8,8-8h145.5c4.4,0,8,3.6,8,8S475.6,303.5,471.1,303.5z"/>
<path class="st0" d="M471.1,271.5H348.5c-4.4,0-8-3.6-8-8c0-4.4,3.6-8,8-8h122.7c4.4,0,8,3.6,8,8C479.1,268,475.6,271.5,471.1,271.5
	z"/>
<path class="st0" d="M471.1,239.6h-113c-4.4,0-8-3.6-8-8s3.6-8,8-8h113c4.4,0,8,3.6,8,8S475.6,239.6,471.1,239.6z"/>
<path class="st0" d="M471.1,207.6H359.3c-4.4,0-8-3.6-8-8c0-4.4,3.6-8,8-8h111.8c4.4,0,8,3.6,8,8
	C479.1,204.1,475.6,207.6,471.1,207.6z"/>
<path class="st0" d="M471.1,175.7H359.3c-4.4,0-8-3.6-8-8c0-4.4,3.6-8,8-8h111.8c4.4,0,8,3.6,8,8
	C479.1,172.1,475.6,175.7,471.1,175.7z"/>
<path class="st0" d="M471.1,143.7H359.4c-4.4,0-8-3.6-8-8c0-4.4,3.6-8,8-8h111.7c4.4,0,8,3.6,8,8
	C479.1,140.2,475.6,143.7,471.1,143.7z"/>
<path class="st0" d="M471.1,111.8H356.6c-4.4,0-8-3.6-8-8c0-4.4,3.6-8,8-8h114.6c4.4,0,8,3.6,8,8
	C479.1,108.2,475.6,111.8,471.1,111.8z"/>
<path class="st0" d="M471.1,79.9H311.4c-4.4,0-8-3.6-8-8c0-4.4,3.6-8,8-8h159.8c4.4,0,8,3.6,8,8C479.1,76.3,475.6,79.9,471.1,79.9z"
	/>
<path class="st0" d="M471.1,47.9H247.5c-4.4,0-8-3.6-8-8s3.6-8,8-8h223.7c4.4,0,8,3.6,8,8S475.6,47.9,471.1,47.9z"/>
<path class="st0" d="M471.5,16H23.8c-4.4,0-8-3.6-8-8s3.6-8,8-8h447.6c4.4,0,8,3.6,8,8S475.9,16,471.5,16z"/>
</svg>
