<?xml version="1.0" encoding="utf-8"?>
<!-- Generator: Adobe Illustrator 25.0.0, SVG Export Plug-In . SVG Version: 6.00 Build 0)  -->
<svg version="1.1" id="Capa_1" xmlns="http://www.w3.org/2000/svg" xmlns:xlink="http://www.w3.org/1999/xlink" x="0px" y="0px"
	 viewBox="0 0 512 512" style="enable-background:new 0 0 512 512;" xml:space="preserve">
<style type="text/css">
	.st0{fill:#FFFFFF;}
</style>
<g>
	<path class="st0" d="M449.7,35.1L256,0.1c-1-0.2-2.1-0.2-3.1,0L62.2,35.1c-4.1,0.7-7,4.3-7,8.4v134.8c0,63.1,16,125.7,46.2,181
		S175.6,462,228.7,496.1l22.7,14.6c2.8,1.8,6.4,1.8,9.2,0l22.7-14.6c41.5-26.7,76.9-60.7,105.2-101.1c2.4-3.4,1.6-8.1-1.8-10.4
		c-3.4-2.4-8.1-1.5-10.4,1.8c-27.2,38.8-61.1,71.4-101,97.1L256,495.8l-19.2-12.3C132.5,416.4,70.2,302.3,70.2,178.3V48.9
		l184.2-33.7l187.3,33.8v129.4c0,62.6-16.3,124.4-47.2,178.8c-2,3.6-0.8,8.2,2.8,10.2c3.6,2,8.2,0.8,10.2-2.8
		c32.1-56.7,49.1-121.1,49.1-186.2V43.5C456.8,39.3,453.8,35.8,449.7,35.1L449.7,35.1z"/>
	<path class="st0" d="M132.5,49.6l-44.2,8.1c-3.6,0.7-6.1,3.8-6.1,7.4v113.2c0,58.6,14.8,116.7,42.9,168.1
		c28.1,51.4,68.9,95.3,118.2,127l8.7,5.6c2.5,1.6,5.6,1.6,8.1,0l8.7-5.6c49.3-31.7,90.1-75.6,118.2-127
		c28.1-51.4,42.9-109.5,42.9-168.1V65.2c0-3.6-2.6-6.7-6.2-7.4L255.8,27.5c-0.9-0.2-1.8-0.2-2.7,0l-85.4,15.7
		c-4.1,0.7-6.8,4.7-6,8.7c0.7,4.1,4.7,6.8,8.7,6l84.1-15.4l160.3,28.9v106.9c0,56-14.2,111.7-41.1,160.9
		c-26.9,49.2-66,91.2-113.1,121.5l-4.6,3l-4.6-3c-47.1-30.3-86.3-72.3-113.1-121.5C111.4,290,97.2,234.4,97.2,178.3v-107l38-7
		c4.1-0.7,6.8-4.7,6-8.7C140.5,51.6,136.6,48.9,132.5,49.6L132.5,49.6z"/>
	<path class="st0" d="M145.7,220.9c-4.8,0-8.7,3.9-8.7,8.7v17.1c0,11.6,9.5,21.1,21.1,21.1h36.6c11.6,0,21.1-9.5,21.1-21.1v-17.1
		c0-4.8-3.9-8.7-8.7-8.7h-3.1l-17.1-41.2c1.7-0.5,20-7.4,45.7-10.2v115.1c-17.6,0.4-31.9,14.9-31.9,32.6v5.6c0,4.8,3.9,8.7,8.7,8.7
		h93.2c4.8,0,8.7-3.9,8.7-8.7v-5.6c0-17.7-14.2-32.2-31.9-32.6V169.5c25,2.7,45,10,45.7,10.2l-17.1,41.2H305c-4.8,0-8.7,3.9-8.7,8.7
		v17.1c0,11.6,9.5,21.1,21.1,21.1h36.6c11.6,0,21.1-9.5,21.1-21.1v-17.1c0-4.8-3.9-8.7-8.7-8.7h-3.1L346.3,180
		c1.2-0.6,2.3-1.3,3.4-2c6-4.3,9.4-11,9.4-18.3c0-9.7-6.2-18.4-15.5-21.5l-15.2-5.1c-15.1-5-30.8-8.5-46.7-10.3
		c-4.3-6.1-10.7-10.7-18.2-12.5v-7.2c0-4.1-3.4-7.5-7.5-7.5s-7.5,3.4-7.5,7.5v7.2c-7.5,1.8-13.9,6.4-18.2,12.5
		c-6.5,0.7-13.1,1.8-19.5,3.1c-4.1,0.8-6.7,4.8-5.9,8.8c0.8,4.1,4.8,6.7,8.8,5.9c3.6-0.7,7.3-1.4,10.9-1.9
		c-0.4,5.6,0.8,11.2,3.3,16.3c-15.1,1.9-30,5.2-44.4,10c-3.8,0.8-7.9,4.1-12.5,0.8c-2-1.4-3.2-3.7-3.2-6.2c0-3.3,2.1-6.2,5.2-7.2
		l7.5-2.5c3.9-1.3,6.1-5.6,4.7-9.5c-1.3-3.9-5.6-6.1-9.5-4.7l-7.5,2.5c-9.2,3.1-15.5,11.7-15.5,21.5c0,7.4,3.4,14,9.4,18.3
		c1.1,0.8,2.2,1.5,3.4,2l-16.9,40.9L145.7,220.9L145.7,220.9z M264.4,171v113.6h-16.9V171C253.1,172.6,258.9,172.6,264.4,171z
		 M296.3,316.5h-80.5c0.4-9.4,8.1-16.9,17.6-16.9h45.4C288.1,299.6,295.9,307.1,296.3,316.5z M360,246.7c0,3.3-2.7,6.1-6.1,6.1
		h-36.6c-3.3,0-6.1-2.7-6.1-6.1v-10.8H360L360,246.7L360,246.7z M324.3,220.9l11.3-27.3l11.3,27.3H324.3z M323.7,147.4l15.2,5.1
		c3.1,1,5.2,3.9,5.2,7.2c0,2.5-1.2,4.7-3.2,6.2c-4.6,3.3-8.7,0-12.5-0.8c-14.4-4.8-29.3-8.2-44.4-10c2.6-5,3.7-10.6,3.3-16.3
		C299.7,140.5,311.9,143.4,323.7,147.4L323.7,147.4z M256,124.4c9,0,16.4,7.4,16.4,16.4c0,9-7.4,16.4-16.4,16.4
		c-9,0-16.4-7.4-16.4-16.4C239.6,131.7,247,124.4,256,124.4z M200.7,246.7c0,3.3-2.7,6.1-6.1,6.1h-36.6c-3.3,0-6.1-2.7-6.1-6.1
		v-10.8h48.7L200.7,246.7L200.7,246.7z M176.4,193.6l11.3,27.3H165L176.4,193.6z"/>
</g>
</svg>
